HIERARCHY
ROOT Hips
{
	OFFSET 0.000000 0.000000 0.000000
	CHANNELS 6 Xposition Yposition Zposition Xrotation Yrotation Zrotation
	JOINT Chest
	{
		OFFSET 0.000000 0.009282 11.569106
		CHANNELS 3 Xrotation Yrotation Zrotation
		JOINT Chest2
		{
			OFFSET 0.000000 -0.016863 9.269641
			CHANNELS 3 Xrotation Yrotation Zrotation
			JOINT Chest3
			{
				OFFSET 0.000000 0.000000 8.374491
				CHANNELS 3 Xrotation Yrotation Zrotation
				JOINT Chest4
				{
					OFFSET 0.000000 0.000000 8.374493
					CHANNELS 3 Xrotation Yrotation Zrotation
					JOINT Neck
					{
						OFFSET 0.000000 -0.000001 12.152554
						CHANNELS 3 Xrotation Yrotation Zrotation
						JOINT Head
						{
							OFFSET 0.000000 -0.040100 7.802319
							CHANNELS 3 Xrotation Yrotation Zrotation
							End Site
							{
								OFFSET 0.000000 -0.020946 14.853096
							}
						}
					}
					JOINT RightCollar
					{
						OFFSET -2.894404 0.000000 6.791374
						CHANNELS 3 Xrotation Yrotation Zrotation
						JOINT RightShoulder
						{
							OFFSET -13.574684 0.000000 0.000000
							CHANNELS 3 Xrotation Yrotation Zrotation
							JOINT RightElbow
							{
								OFFSET -23.923903 0.000000 0.000000
								CHANNELS 3 Xrotation Yrotation Zrotation
								JOINT RightWrist
								{
									OFFSET -19.846718 -0.012765 0.000000
									CHANNELS 3 Xrotation Yrotation Zrotation
									End Site
									{
										OFFSET -14.973145 0.000000 0.000000
									}
								}
							}
						}
					}
					JOINT LeftCollar
					{
						OFFSET 2.894404 0.000000 6.791374
						CHANNELS 3 Xrotation Yrotation Zrotation
						JOINT LeftShoulder
						{
							OFFSET 13.574684 0.000000 0.000000
							CHANNELS 3 Xrotation Yrotation Zrotation
							JOINT LeftElbow
							{
								OFFSET 23.923903 0.000000 0.000000
								CHANNELS 3 Xrotation Yrotation Zrotation
								JOINT LeftWrist
								{
									OFFSET 19.846718 -0.012765 0.000000
									CHANNELS 3 Xrotation Yrotation Zrotation
									End Site
									{
										OFFSET 14.973145 0.000000 0.000000
									}
								}
							}
						}
					}
				}
			}
		}
	}
	JOINT RightHip
	{
		OFFSET -9.469263 -0.004642 0.045487
		CHANNELS 3 Xrotation Yrotation Zrotation
		JOINT RightKnee
		{
			OFFSET 0.000000 -0.002666 -40.478676
			CHANNELS 3 Xrotation Yrotation Zrotation
			JOINT RightAnkle
			{
				OFFSET 0.000000 -0.049110 -35.224068
				CHANNELS 3 Xrotation Yrotation Zrotation
				JOINT RightToe
				{
					OFFSET 0.000000 -12.539530 -6.151390
					CHANNELS 3 Xrotation Yrotation Zrotation
					End Site
					{
						OFFSET 0.000000 -5.044995 -1.291870
					}
				}
			}
		}
	}
	JOINT LeftHip
	{
		OFFSET 9.469263 -0.004642 0.045487
		CHANNELS 3 Xrotation Yrotation Zrotation
		JOINT LeftKnee
		{
			OFFSET 0.000000 -0.002666 -40.478676
			CHANNELS 3 Xrotation Yrotation Zrotation
			JOINT LeftAnkle
			{
				OFFSET 0.000000 -0.049110 -35.224068
				CHANNELS 3 Xrotation Yrotation Zrotation
				JOINT LeftToe
				{
					OFFSET 0.000000 -12.539530 -6.151390
					CHANNELS 3 Xrotation Yrotation Zrotation
					End Site
					{
						OFFSET 0.000000 -5.044995 -1.291870
					}
				}
			}
		}
	}
}
MOTION
Frames: 5
Frame Time: 0.016667
-10.507880 -5.787554 83.037857 6.025107 7.653525 -121.496880 1.423275 1.271266 1.512443 0.634601 0.558610 0.675811 0.634603 0.558612 0.675816 0.476567 0.418257 0.507438 16.507871 -3.579159 -15.491065 -4.809672 -1.198934 -29.468940 -1.654742 -1.127971 -5.320398 -77.500333 -61.471709 -1.451235 -50.773379 -46.797410 27.608625 -53.086645 20.767774 6.257355 5.313379 11.467376 -17.235738 43.682666 65.795861 -81.206749 -14.350835 52.428710 -44.064597 -59.438212 -12.379218 -21.062596 10.202979 -1.252563 1.381390 4.449248 0.555605 3.244494 -5.090801 -1.169521 3.444204 0.012889 -0.014978 0.003353 12.819905 -0.817283 3.493785 2.412083 -0.404618 2.266619 -5.796399 0.108509 3.249636 0.020635 0.044020 -0.004479 
-10.487676 -5.806897 83.038910 6.035974 7.667527 -121.519037 1.434020 1.262606 1.511217 0.639336 0.554803 0.675576 0.639337 0.554805 0.675577 0.480113 0.415398 0.507260 16.536791 -3.584596 -15.481655 -4.759220 -1.217990 -29.453183 -1.633609 -1.138034 -5.318478 -77.644894 -61.369420 -1.814739 -51.229339 -46.459602 26.832323 -52.243646 19.590215 4.566990 5.306079 11.480161 -17.213503 43.897633 65.783956 -81.370366 -15.520942 51.864703 -42.651967 -59.362909 -10.791157 -19.751739 10.180353 -1.246253 1.385407 4.487077 0.555310 3.241733 -5.086358 -1.168323 3.460020 0.009877 -0.017774 0.003571 12.807971 -0.813520 3.494542 2.437446 -0.398474 2.269581 -5.794951 0.096030 3.264065 0.020853 0.037582 -0.004489 
-10.468674 -5.826764 83.040199 6.046144 7.678195 -121.542738 1.442945 1.247010 1.510483 0.643437 0.548006 0.675348 0.643439 0.548006 0.675347 0.483182 0.410294 0.507083 16.568232 -3.584928 -15.465240 -4.704048 -1.230614 -29.422911 -1.588028 -1.128491 -5.314030 -77.692418 -61.297410 -2.040434 -51.425502 -45.904837 26.335217 -51.244751 18.674750 2.977518 5.289399 11.510674 -17.188904 44.103696 65.743972 -81.532262 -16.711171 51.297914 -41.257874 -59.214147 -9.268849 -18.479767 10.153482 -1.241580 1.406653 4.528322 0.558394 3.222159 -5.083337 -1.171855 3.500905 0.006811 -0.019384 0.004954 12.796804 -0.809913 3.496785 2.455600 -0.394129 2.267354 -5.791739 0.087564 3.255911 0.021880 0.029909 -0.005396 
-10.450280 -5.843805 83.041138 6.056528 7.686118 -121.565401 1.439312 1.226542 1.507211 0.641795 0.539383 0.673783 0.641799 0.539384 0.673779 0.481940 0.403833 0.505897 16.609997 -3.576407 -15.446109 -4.628435 -1.230398 -29.384492 -1.510277 -1.112564 -5.305095 -77.746356 -61.207422 -2.190136 -51.664456 -45.200402 25.728576 -50.156125 17.566850 1.259404 5.298425 11.553862 -17.167508 44.264438 65.709056 -81.661134 -17.751385 50.618009 -40.021528 -59.008333 -7.972222 -17.291882 10.125334 -1.246132 1.443183 4.569018 0.566726 3.213090 -5.080736 -1.172590 3.477479 0.003878 -0.020214 0.004792 12.790715 -0.806204 3.510881 2.463960 -0.387285 2.242826 -5.786170 0.075660 3.321533 0.022503 0.021819 -0.003898 
-10.434825 -5.861852 83.041710 6.062365 7.690607 -121.587585 1.425734 1.213511 1.503184 0.635728 0.533560 0.671682 0.635728 0.533560 0.671683 0.477379 0.399473 0.504311 16.661007 -3.575538 -15.426542 -4.537585 -1.246072 -29.347725 -1.536302 -1.090098 -5.335253 -77.568724 -61.136340 -2.218363 -52.203621 -44.543748 24.873905 -49.068468 16.099183 -0.664955 5.321108 11.591393 -17.155904 44.345324 65.702424 -81.725372 -18.617477 49.872276 -38.899696 -58.882678 -6.825554 -16.213317 10.094168 -1.241018 1.473902 4.609405 0.570232 3.193546 -5.079543 -1.174998 3.493540 0.001124 -0.022579 0.006120 12.783981 -0.805077 3.532680 2.462669 -0.382028 2.264288 -5.775206 0.075387 3.267026 0.022983 0.015408 -0.005665 
